<svg xmlns="http://www.w3.org/2000/svg" xmlns:xlink="http://www.w3.org/1999/xlink" viewBox="0 0 84.04 85.69"><defs><style>.cls-1,.cls-3{fill:#b8ccc7;}.cls-2{opacity:0.8;}.cls-3{stroke:#b8ccc7;stroke-miterlimit:10;stroke-width:0.5px;}.cls-4{fill:#769d94;}</style></defs><g id="圖層_2" data-name="圖層 2"><g id="圖層_2-2" data-name="圖層 2"><path class="cls-1" d="M67.06,30.12H9.62"/><path class="cls-1" d="M67.06,28.87H9.62a1.25,1.25,0,0,0,0,2.5H67.06a1.25,1.25,0,0,0,0-2.5Z"/><ellipse class="cls-1" cx="4.28" cy="30.12" rx="4.03" ry="4.14"/><g class="cls-2"><path class="cls-1" d="M67.1,42.85H9.66"/><path class="cls-1" d="M67.1,41.6H9.66a1.25,1.25,0,0,0,0,2.5H67.1a1.25,1.25,0,0,0,0-2.5Z"/><ellipse class="cls-3" cx="4.32" cy="42.85" rx="4.03" ry="4.14"/></g><g class="cls-2"><path class="cls-1" d="M67.06,55.83H9.62"/><path class="cls-1" d="M67.06,54.58H9.62a1.25,1.25,0,0,0,0,2.5H67.06a1.25,1.25,0,0,0,0-2.5Z"/><ellipse class="cls-3" cx="4.28" cy="55.83" rx="4.03" ry="4.14"/></g><g class="cls-2"><path class="cls-1" d="M67.06,68.58H9.62"/><path class="cls-1" d="M67.06,67.33H9.62a1.25,1.25,0,0,0,0,2.5H67.06a1.25,1.25,0,0,0,0-2.5Z"/><ellipse class="cls-3" cx="4.28" cy="68.58" rx="4.03" ry="4.14"/></g><image width="322" height="648" transform="matrix(0.12, 0.02, -0.02, 0.12, 44.05, 0)" xlink:href="../../Downloads/single.png"/><path class="cls-4" d="M34.34,79.38"/><path class="cls-1" d="M33.81,80.34c.65,0,1.59-.18,1.9-.85s-.24-1.06-.85-1.06-1.59.18-1.89.84.24,1.07.84,1.07Z"/></g></g></svg>